<svg xmlns="http://www.w3.org/2000/svg" xmlns:xlink="http://www.w3.org/1999/xlink" viewBox="0 -32.268 146.32 50.512" width="146.32" height="50.512">
<defs>
<path id="g0-41" d="M304 161C164 44 134 -69 134 -255C134 -448 165 -541 304 -660L295 -676C135 -581 48 -437 48 -252C48 -82 134 87 292 177Z"/>
<path id="g0-42" d="M29 -660C174 -546 199 -431 199 -244C199 -50 171 44 29 161L38 177C197 80 285 -62 285 -247C285 -417 194 -584 41 -676Z"/>
<path id="g0-50" d="M394 0L394 -15C319 -15 299 -33 299 -76L299 -673L290 -676L111 -585L111 -571L138 -581C156 -588 173 -593 183 -593C204 -593 213 -578 213 -544L213 -95C213 -40 192 -19 118 -15L118 0Z"/>
<path id="g0-51" d="M474 -137L460 -143C427 -87 406 -76 364 -76L130 -76L295 -252C384 -346 423 -421 423 -500C423 -599 351 -676 238 -676C115 -676 51 -594 30 -477L51 -472C91 -570 126 -602 198 -602C283 -602 337 -552 337 -461C337 -376 301 -300 207 -201L29 -12L29 0L420 0Z"/>
<path id="g0-62" d="M637 -120L637 -186L48 -186L48 -120ZM637 -320L637 -386L48 -386L48 -320Z"/>
<path id="g0-1155" d="M621 -220L621 -286L64 -286L64 -220Z"/>
<path id="g0-1466" d="M895 0L895 -1855L829 -1855L829 -404L828 -404L377 -1687L337 -1687L112 -1558L135 -1526C162 -1549 211 -1557 232 -1557C261 -1557 291 -1539 305 -1499L838 0Z"/>
<path id="g0-2489" d="M901 -653L635 -653L631 -637L651 -637C710 -637 727 -620 727 -600C727 -590 725 -583 723 -574L626 -188L621 -188L385 -653L185 -653L181 -637L200 -637C230 -637 273 -630 292 -587L166 -78C158 -44 135 -16 60 -16L42 -16L38 0L304 0L308 -16L289 -16C230 -16 213 -31 213 -51C213 -62 214 -70 216 -78L324 -526L330 -526L604 0L628 0L772 -574C781 -611 804 -637 879 -637L897 -637Z"/>
<path id="g0-2509" d="M227 -441L69 -419L72 -403C79 -405 91 -407 100 -407C123 -407 131 -402 131 -385C131 -382 130 -375 129 -373C50 -66 50 -47 50 -35C50 -8 62 11 90 11C139 11 189 -49 224 -94L211 -104C175 -65 169 -53 147 -53C140 -53 134 -56 134 -63C134 -67 134 -71 135 -77ZM257 -566C257 -591 235 -616 209 -616C180 -616 161 -591 161 -566C161 -540 180 -520 209 -520C235 -520 257 -540 257 -566Z"/>
<path id="g0-2524" d="M305 -288L285 -343C273 -376 254 -417 210 -441L78 -408L81 -390C91 -394 106 -396 119 -396C174 -396 200 -355 217 -307L250 -215L185 -114C153 -65 127 -55 115 -55C90 -55 94 -75 68 -75C43 -75 30 -54 30 -38C30 -16 46 9 82 9C138 9 167 -34 199 -83L262 -181L302 -68C315 -32 334 9 375 9C433 9 478 -87 490 -102L476 -112C455 -69 431 -55 415 -55C370 -55 347 -190 317 -252L372 -337C386 -359 397 -375 427 -375C444 -375 449 -366 471 -366C497 -366 510 -389 510 -408C510 -429 493 -441 461 -441C411 -441 376 -397 350 -357Z"/>
<path id="g0-3173" d="M549 -428L471 -428L455 -357C436 -274 311 -58 258 -58C218 -58 204 -76 204 -103C204 -112 206 -121 208 -130L279 -428L200 -428L75 69C60 130 44 163 30 183L104 183C127 157 134 123 170 -19C175 -5 194 6 211 6C257 6 308 -39 405 -185C386 -108 372 -42 372 -14C372 14 384 27 413 27C460 27 529 -35 544 -79L529 -85C517 -64 495 -37 472 -37C460 -37 455 -43 455 -51C455 -61 459 -74 463 -90Z"/>
<path id="g0-3180" d="M286 -355C319 -335 358 -290 358 -226C358 -145 285 -19 186 -19C132 -19 121 -89 121 -121C121 -263 217 -349 284 -355ZM547 -428L300 -428C170 -428 40 -319 40 -149C40 -77 79 11 182 11C327 11 438 -100 438 -212C438 -287 376 -292 354 -355L527 -355Z"/>
<path id="g0-3640" d="M1202 -465L1163 -465C1127 -301 1058 -232 919 -232L351 -232L821 -845L410 -1409L787 -1409C822 -1409 865 -1408 893 -1404C960 -1396 1027 -1344 1055 -1213C1059 -1193 1066 -1167 1066 -1148L1102 -1148L1102 -1499L126 -1499L647 -784L90 -49L1128 -49Z"/>
<path id="g0-3843" d="M895 0L895 -635L829 -635L829 0Z"/>
<path id="g0-3844" d="M1211 -560L1211 -626L829 -626L829 0L895 0L895 -560Z"/>
</defs>
<g fill="#000">
<use xlink:href="#g0-3180" transform="translate(0 0) scale(0.016)"/>
<use xlink:href="#g0-62" transform="translate(13.925 0) scale(0.016)"/>
<use xlink:href="#g0-3844" transform="translate(30.219 -22.252) scale(0.016)"/>
<use xlink:href="#g0-3843" transform="translate(30.219 -15.26) scale(0.016)"/>
<use xlink:href="#g0-3843" transform="translate(30.219 -8.268) scale(0.016)"/>
<use xlink:href="#g0-1466" transform="translate(30.219 18.244) scale(0.016)"/>
<use xlink:href="#g0-50" transform="translate(53.571 -9.28) scale(0.016)"/>
<use xlink:href="#g0-2489" transform="translate(50.763 11.2) scale(0.016)"/>
<use xlink:href="#g0-2489" transform="translate(73.875 -20.4) scale(0.012)"/>
<use xlink:href="#g0-3640" transform="translate(68.645 8.384) scale(0.016)"/>
<use xlink:href="#g0-2509" transform="translate(70.005 18.112) scale(0.012)"/>
<use xlink:href="#g0-62" transform="translate(73.737 18.112) scale(0.012)"/>
<use xlink:href="#g0-50" transform="translate(81.957 18.112) scale(0.012)"/>
<use xlink:href="#g0-41" transform="translate(89.317 0) scale(0.016)"/>
<use xlink:href="#g0-2524" transform="translate(94.645 0) scale(0.016)"/>
<use xlink:href="#g0-2509" transform="translate(103.445 4) scale(0.012)"/>
<use xlink:href="#g0-1155" transform="translate(110.733 0) scale(0.016)"/>
<use xlink:href="#g0-3173" transform="translate(125.248 0) scale(0.016)"/>
<use xlink:href="#g0-42" transform="translate(134.992 0) scale(0.016)"/>
<use xlink:href="#g0-51" transform="translate(140.32 -4.816) scale(0.012)"/>
<rect x="49.163" y="-32.268" width="97.158" height="1.056"/>
<rect x="50.763" y="-4.528" width="13.616" height="1.056"/>
</g>
</svg>
