<svg xmlns="http://www.w3.org/2000/svg" xmlns:xlink="http://www.w3.org/1999/xlink" viewBox="0 -20.192 43.893 29.712" width="43.893" height="29.712">
<defs>
<path id="g0-1138" d="M426 0L426 -28C334 -28 297 -46 297 -95L297 -639L268 -639L74 -584L74 -551C105 -561 156 -567 176 -567C201 -567 209 -553 209 -518L209 -95C209 -45 174 -28 80 -28L80 0Z"/>
<path id="g0-1139" d="M464 -160L435 -160C412 -100 399 -79 346 -79L207 -79L137 -76L137 -81L269 -206C375 -313 432 -382 432 -471C432 -576 353 -644 240 -644C143 -644 75 -588 44 -491L68 -481C105 -556 149 -579 214 -579C291 -579 339 -531 339 -456C339 -351 289 -288 190 -186L38 -34L38 0L432 0Z"/>
<path id="g0-1140" d="M86 -498C120 -551 157 -579 217 -579C279 -579 319 -545 319 -486C319 -405 248 -350 180 -350L161 -350L161 -312L181 -312C277 -312 362 -253 362 -164C362 -66 301 -37 238 -37C214 -37 200 -41 157 -63C122 -81 114 -86 98 -86C72 -86 59 -63 59 -42C59 -16 81 13 171 13C317 13 444 -57 444 -194C444 -283 377 -336 297 -361L297 -364C360 -404 405 -441 405 -510C405 -586 346 -644 244 -644C162 -644 100 -598 63 -511Z"/>
<path id="g0-1141" d="M481 -158L481 -227L379 -227L379 -645L318 -645L13 -221L13 -158L290 -158L290 0L379 0L379 -158ZM290 -227L68 -227L68 -231L286 -536L290 -536Z"/>
<path id="g0-1202" d="M658 -327L658 -395L62 -395L62 -327ZM658 -123L658 -190L62 -190L62 -123Z"/>
</defs>
<g fill="#000">
<use xlink:href="#g0-1139" transform="translate(8.267 -9.888) scale(0.016)"/>
<use xlink:href="#g0-1140" transform="translate(8.267 9.312) scale(0.016)"/>
<use xlink:href="#g0-1202" transform="translate(16.187 -9.888) scale(0.016)"/>
<use xlink:href="#g0-1202" transform="translate(16.187 9.312) scale(0.016)"/>
<use xlink:href="#g0-1138" transform="translate(27.707 -9.888) scale(0.016)"/>
<use xlink:href="#g0-1141" transform="translate(27.707 9.312) scale(0.016)"/>
</g>
</svg>
