<svg xmlns="http://www.w3.org/2000/svg" xmlns:xlink="http://www.w3.org/1999/xlink" viewBox="0 -22.896 249.524 37.536" width="249.524" height="37.536">
<defs>
<path id="g0-258" d="M514 -18L514 -45L493 -45C456 -45 443 -55 443 -107L443 -706L416 -706L290 -671L290 -643C290 -643 307 -645 316 -645C355 -645 360 -636 360 -592L360 -461C329 -478 296 -485 263 -485C137 -485 33 -384 33 -219C33 -91 91 8 204 8C270 8 321 -30 359 -64L363 -64L363 5L386 5ZM360 -101C325 -77 298 -64 251 -64C166 -64 120 -120 120 -258C120 -384 177 -445 261 -445C323 -445 352 -406 360 -365Z"/>
<path id="g0-1048" d="M70 132C110 114 194 80 194 -33C194 -88 167 -121 117 -121C77 -121 55 -94 55 -62C55 -33 71 -8 110 -8C121 -8 130 -10 141 -14C141 67 95 91 58 107Z"/>
<path id="g0-1064" d="M45 -270C45 -47 150 112 311 196L327 170C181 71 127 -66 127 -270C127 -474 181 -611 327 -710L311 -736C150 -652 45 -493 45 -270Z"/>
<path id="g0-1065" d="M312 -270C312 -493 207 -652 46 -736L30 -710C176 -611 230 -474 230 -270C230 -66 176 71 30 170L46 196C207 112 312 -47 312 -270Z"/>
<path id="g0-1138" d="M426 0L426 -28C334 -28 297 -46 297 -95L297 -639L268 -639L74 -584L74 -551C105 -561 156 -567 176 -567C201 -567 209 -553 209 -518L209 -95C209 -45 174 -28 80 -28L80 0Z"/>
<path id="g0-1196" d="M658 -225L658 -293L396 -293L396 -558L324 -558L324 -293L62 -293L62 -225L324 -225L324 40L396 40L396 -225Z"/>
<path id="g0-1202" d="M658 -327L658 -395L62 -395L62 -327ZM658 -123L658 -190L62 -190L62 -123Z"/>
<path id="g0-1647" d="M1047 0L998 0C942 192 906 284 754 284L183 284L183 278L639 -316L639 -336L224 -851L224 -856L666 -856C862 -856 932 -824 959 -596L1004 -596L990 -919L29 -919L29 -888L526 -280L15 380L15 406L968 406Z"/>
<path id="g0-1658" d="M926 -1589L484 88L480 88L216 -603L196 -603L30 -494L49 -465L153 -505L451 265L496 265L976 -1521L1076 -1521L1076 -1589Z"/>
<path id="g0-1705" d="M1330 -1365C1308 -1346 1297 -1324 1297 -1297C1297 -1264 1314 -1247 1340 -1247C1373 -1247 1414 -1273 1414 -1334C1414 -1398 1370 -1429 1310 -1429C1051 -1429 975 -800 913 -259C839 395 798 868 626 868C606 868 597 861 597 861L597 855C610 835 621 812 621 783C621 749 605 727 575 727C538 727 507 757 507 816C507 868 542 917 625 917C845 917 957 488 1041 -290C1093 -769 1126 -1378 1296 -1378C1319 -1378 1330 -1371 1330 -1371ZM873 -1365C851 -1346 840 -1324 840 -1297C840 -1264 857 -1247 883 -1247C916 -1247 957 -1273 957 -1334C957 -1398 913 -1429 853 -1429C594 -1429 518 -800 456 -259C382 395 341 868 169 868C149 868 140 861 140 861L140 855C153 835 164 812 164 783C164 749 148 727 118 727C81 727 50 757 50 816C50 868 85 917 168 917C388 917 500 488 584 -290C636 -769 669 -1378 839 -1378C862 -1378 873 -1371 873 -1371Z"/>
<path id="g0-3331" d="M190 -467L186 -426L270 -426L205 -37C194 29 168 193 115 193C77 193 110 104 50 104C24 104 10 125 10 153C10 188 35 225 99 225C236 225 282 1 296 -85L353 -426L447 -426L453 -467L358 -467L370 -538C385 -623 410 -682 461 -682C485 -682 487 -658 491 -633C494 -612 504 -594 531 -594C552 -594 571 -609 571 -638C571 -681 537 -711 476 -711C390 -711 349 -665 323 -618C300 -577 288 -523 276 -467Z"/>
<path id="g0-3347" d="M317 -467L216 -467L244 -593L214 -593C164 -506 139 -482 75 -449L71 -428L128 -428L60 -101C58 -91 53 -61 53 -44C53 -13 72 9 114 9C193 9 235 -65 264 -104L244 -119C209 -74 188 -59 159 -59C145 -59 142 -69 142 -80C142 -97 149 -130 149 -130L208 -428L309 -428Z"/>
<path id="g0-3354" d="M315 -298L312 -298L300 -349C286 -403 267 -447 243 -475L228 -475L89 -459L89 -429C89 -429 104 -432 120 -432C186 -433 203 -406 230 -322L258 -231L186 -126C147 -70 129 -69 125 -69C108 -69 84 -82 62 -82C38 -82 23 -60 23 -40C23 -15 38 9 81 9C141 9 174 -38 206 -90L270 -194L274 -194L299 -93C313 -28 335 10 381 10C449 10 491 -58 520 -102L499 -118C472 -82 453 -62 427 -62C396 -62 376 -99 348 -191L327 -259L388 -356C405 -384 419 -398 442 -398C455 -398 478 -388 494 -388C521 -388 540 -411 540 -435C540 -463 528 -479 490 -479C431 -479 391 -430 364 -382Z"/>
<path id="g0-3355" d="M251 -325C239 -405 232 -437 210 -475L195 -475L53 -464L53 -435C53 -435 74 -437 88 -437C149 -437 154 -388 161 -343L220 9C192 52 112 165 93 165C71 165 60 112 22 112C-1 112 -17 125 -17 155C-17 192 18 220 60 220C136 220 197 112 289 -15C341 -87 398 -173 452 -268C484 -322 496 -367 496 -406C496 -449 470 -482 433 -482C404 -482 389 -464 389 -443C389 -405 438 -377 438 -351C438 -327 429 -303 405 -264L290 -79L284 -79L275 -179Z"/>
<path id="g0-4028" d="M375 -391C324 -390 278 -378 218 -354C200 -383 190 -402 190 -431C190 -556 405 -591 408 -591C470 -598 476 -619 476 -645C476 -674 466 -692 457 -692C443 -692 374 -671 291 -626C264 -639 244 -653 244 -684C244 -711 253 -725 277 -746L264 -764C219 -746 176 -710 176 -673C176 -624 222 -609 252 -603L252 -599C177 -562 136 -514 136 -442C136 -389 167 -364 191 -344L191 -341C122 -307 62 -259 62 -167C62 45 329 -36 329 74C329 121 261 136 194 137C167 137 137 135 116 133L115 144C115 178 134 220 188 220C255 220 374 162 374 37C374 -129 109 -61 109 -187C109 -241 144 -291 225 -314C230 -314 273 -298 336 -298C358 -298 385 -311 390 -353C392 -374 388 -391 375 -391Z"/>
<path id="g0-4275" d="M489 -174L454 -174C428 -109 416 -87 359 -87L229 -87L151 -83L151 -90L276 -211C387 -320 457 -393 457 -491C457 -604 372 -671 253 -671C150 -671 79 -614 46 -521L73 -508C110 -573 156 -600 228 -600C306 -600 352 -549 352 -478C352 -365 299 -305 187 -193L45 -49L45 0L455 0Z"/>
</defs>
<g fill="#000">
<use xlink:href="#g0-1705" transform="translate(0 -0.032) scale(0.016)"/>
<use xlink:href="#g0-1658" transform="translate(26.491 4.514) scale(0.016)"/>
<use xlink:href="#g0-1138" transform="translate(43.147 0) scale(0.016)"/>
<use xlink:href="#g0-1196" transform="translate(54.622 0) scale(0.016)"/>
<use xlink:href="#g0-3331" transform="translate(69.698 0) scale(0.016)"/>
<use xlink:href="#g0-4275" transform="translate(79.25 -7.696) scale(0.0112)"/>
<use xlink:href="#g0-1064" transform="translate(85.119 0) scale(0.016)"/>
<use xlink:href="#g0-3354" transform="translate(90.831 0) scale(0.016)"/>
<use xlink:href="#g0-1048" transform="translate(99.935 0) scale(0.016)"/>
<use xlink:href="#g0-3347" transform="translate(106.521 0) scale(0.016)"/>
<use xlink:href="#g0-1048" transform="translate(112.169 0) scale(0.016)"/>
<use xlink:href="#g0-3347" transform="translate(118.756 0) scale(0.016)"/>
<use xlink:href="#g0-1065" transform="translate(124.404 0) scale(0.016)"/>
<use xlink:href="#g0-258" transform="translate(132.783 0) scale(0.016)"/>
<use xlink:href="#g0-3354" transform="translate(141.407 0) scale(0.016)"/>
<use xlink:href="#g0-258" transform="translate(150.511 0) scale(0.016)"/>
<use xlink:href="#g0-3355" transform="translate(159.135 0) scale(0.016)"/>
<use xlink:href="#g0-258" transform="translate(167.535 0) scale(0.016)"/>
<use xlink:href="#g0-3347" transform="translate(176.159 0) scale(0.016)"/>
<use xlink:href="#g0-1202" transform="translate(186.9 0) scale(0.016)"/>
<use xlink:href="#g0-1647" transform="translate(203.753 -0.024) scale(0.016)"/>
<use xlink:href="#g0-4028" transform="translate(224.212 0) scale(0.016)"/>
<use xlink:href="#g0-1064" transform="translate(232.452 0) scale(0.016)"/>
<use xlink:href="#g0-3347" transform="translate(238.164 0) scale(0.016)"/>
<use xlink:href="#g0-1065" transform="translate(243.812 0) scale(0.016)"/>
<rect x="43.147" y="-20.91" width="86.969" height="1.088"/>
</g>
</svg>
